<svg width="13" height="13" viewBox="0 0 13 13" fill="none" xmlns="http://www.w3.org/2000/svg">
<path d="M11.0001 3.4L2.12515 12.3C1.92515 12.5 1.68748 12.6 1.41215 12.6C1.13681 12.6 0.89948 12.5 0.700146 12.3C0.500146 12.1 0.400146 11.8623 0.400146 11.587C0.400146 11.3117 0.500146 11.0743 0.700146 10.875L9.60015 2H2.00015C1.71681 2 1.47915 1.904 1.28715 1.712C1.09515 1.52 0.99948 1.28267 1.00015 1C1.00015 0.71667 1.09615 0.479004 1.28815 0.287004C1.48015 0.0950036 1.71748 -0.000663207 2.00015 3.4602e-06H12.0001C12.2835 3.4602e-06 12.5211 0.0960036 12.7131 0.288004C12.9051 0.480004 13.0008 0.717337 13.0001 1V11C13.0001 11.2833 12.9041 11.521 12.7121 11.713C12.5201 11.905 12.2828 12.0007 12.0001 12C11.7168 12 11.4791 11.904 11.2871 11.712C11.0951 11.52 10.9995 11.2827 11.0001 11V3.4Z" fill="#3183FF"/>
</svg>
