<svg width="30" height="30" viewBox="0 0 30 30" fill="none" xmlns="http://www.w3.org/2000/svg">
<path d="M20.5881 13.7412H11.1402L15.2679 9.6135C15.5977 9.28362 15.5977 8.74228 15.2679 8.4124C15.1896 8.33399 15.0967 8.27178 14.9943 8.22933C14.892 8.18689 14.7823 8.16504 14.6715 8.16504C14.5608 8.16504 14.4511 8.18689 14.3488 8.22933C14.2464 8.27178 14.1535 8.33399 14.0752 8.4124L8.50126 13.9865C8.42285 14.0648 8.36064 14.1577 8.3182 14.26C8.27575 14.3624 8.25391 14.4721 8.25391 14.5828C8.25391 14.6936 8.27575 14.8033 8.3182 14.9056C8.36064 15.0079 8.42285 15.1009 8.50126 15.1792L14.0752 20.7533C14.1535 20.8316 14.2465 20.8937 14.3488 20.9361C14.4511 20.9784 14.5608 21.0003 14.6715 21.0003C14.7823 21.0003 14.892 20.9784 14.9943 20.9361C15.0966 20.8937 15.1895 20.8316 15.2679 20.7533C15.3462 20.675 15.4083 20.582 15.4507 20.4797C15.493 20.3773 15.5149 20.2677 15.5149 20.1569C15.5149 20.0462 15.493 19.9365 15.4507 19.8342C15.4083 19.7319 15.3462 19.6389 15.2679 19.5606L11.1402 15.4329H20.5881C21.0533 15.4329 21.4339 15.0523 21.4339 14.5871C21.4339 14.1218 21.0533 13.7412 20.5881 13.7412Z" fill="white"/>
</svg>
