<svg width="30" height="30" viewBox="0 0 30 30" fill="none" xmlns="http://www.w3.org/2000/svg">
<path d="M20.892 8.30202C20.7995 8.20932 20.6896 8.13577 20.5686 8.08559C20.4477 8.03541 20.318 8.00958 20.187 8.00958C20.0561 8.00958 19.9264 8.03541 19.8054 8.08559C19.6844 8.13577 19.5745 8.20932 19.482 8.30202L14.592 13.182L9.70202 8.29202C9.60944 8.19944 9.49953 8.126 9.37856 8.07589C9.2576 8.02579 9.12795 8 8.99702 8C8.86609 8 8.73644 8.02579 8.61548 8.07589C8.49451 8.126 8.3846 8.19944 8.29202 8.29202C8.19944 8.3846 8.126 8.49451 8.07589 8.61548C8.02579 8.73644 8 8.86609 8 8.99702C8 9.12795 8.02579 9.2576 8.07589 9.37856C8.126 9.49953 8.19944 9.60944 8.29202 9.70202L13.182 14.592L8.29202 19.482C8.19944 19.5746 8.126 19.6845 8.07589 19.8055C8.02579 19.9264 8 20.0561 8 20.187C8 20.3179 8.02579 20.4476 8.07589 20.5686C8.126 20.6895 8.19944 20.7994 8.29202 20.892C8.3846 20.9846 8.49451 21.058 8.61548 21.1081C8.73644 21.1583 8.86609 21.184 8.99702 21.184C9.12795 21.184 9.2576 21.1583 9.37856 21.1081C9.49953 21.058 9.60944 20.9846 9.70202 20.892L14.592 16.002L19.482 20.892C19.5746 20.9846 19.6845 21.058 19.8055 21.1081C19.9264 21.1583 20.0561 21.184 20.187 21.184C20.3179 21.184 20.4476 21.1583 20.5686 21.1081C20.6895 21.058 20.7994 20.9846 20.892 20.892C20.9846 20.7994 21.058 20.6895 21.1081 20.5686C21.1583 20.4476 21.184 20.3179 21.184 20.187C21.184 20.0561 21.1583 19.9264 21.1081 19.8055C21.058 19.6845 20.9846 19.5746 20.892 19.482L16.002 14.592L20.892 9.70202C21.272 9.32202 21.272 8.68202 20.892 8.30202Z" fill="#003171"/>
</svg>
