<svg width="30" height="30" viewBox="0 0 30 30" fill="none" xmlns="http://www.w3.org/2000/svg">
<path d="M21.7079 8.71022C21.6154 8.61752 21.5055 8.54397 21.3846 8.49379C21.2636 8.44361 21.1339 8.41778 21.0029 8.41778C20.872 8.41778 20.7423 8.44361 20.6213 8.49379C20.5003 8.54397 20.3905 8.61752 20.2979 8.71022L15.4079 13.5902L10.5179 8.70022C10.4254 8.60764 10.3154 8.5342 10.1945 8.4841C10.0735 8.43399 9.94387 8.4082 9.81294 8.4082C9.68201 8.4082 9.55236 8.43399 9.4314 8.4841C9.31043 8.5342 9.20052 8.60764 9.10794 8.70022C9.01536 8.79281 8.94192 8.90272 8.89181 9.02368C8.84171 9.14464 8.81592 9.27429 8.81592 9.40522C8.81592 9.53615 8.84171 9.6658 8.89181 9.78677C8.94192 9.90773 9.01536 10.0176 9.10794 10.1102L13.9979 15.0002L9.10794 19.8902C9.01536 19.9828 8.94192 20.0927 8.89181 20.2137C8.84171 20.3346 8.81592 20.4643 8.81592 20.5952C8.81592 20.7262 8.84171 20.8558 8.89181 20.9768C8.94192 21.0977 9.01536 21.2076 9.10794 21.3002C9.20052 21.3928 9.31043 21.4662 9.4314 21.5163C9.55236 21.5665 9.68201 21.5922 9.81294 21.5922C9.94387 21.5922 10.0735 21.5665 10.1945 21.5163C10.3154 21.4662 10.4254 21.3928 10.5179 21.3002L15.4079 16.4102L20.2979 21.3002C20.3905 21.3928 20.5004 21.4662 20.6214 21.5163C20.7424 21.5665 20.872 21.5922 21.0029 21.5922C21.1339 21.5922 21.2635 21.5665 21.3845 21.5163C21.5054 21.4662 21.6154 21.3928 21.7079 21.3002C21.8005 21.2076 21.874 21.0977 21.9241 20.9768C21.9742 20.8558 22 20.7262 22 20.5952C22 20.4643 21.9742 20.3346 21.9241 20.2137C21.874 20.0927 21.8005 19.9828 21.7079 19.8902L16.8179 15.0002L21.7079 10.1102C22.0879 9.73022 22.0879 9.09022 21.7079 8.71022Z" fill="white"/>
</svg>
