<svg width="48" height="24" viewBox="0 0 48 24" fill="none" xmlns="http://www.w3.org/2000/svg">
<rect width="47.3202" height="23.9886" rx="8" fill="#003171"/>
<path d="M18.0398 9.94318H16.267C16.1989 9.56439 16.072 9.23106 15.8864 8.94318C15.7008 8.6553 15.4735 8.41098 15.2045 8.21023C14.9356 8.00947 14.6345 7.85795 14.3011 7.75568C13.9716 7.65341 13.6212 7.60227 13.25 7.60227C12.5795 7.60227 11.9792 7.77083 11.4489 8.10795C10.9223 8.44508 10.5057 8.93939 10.1989 9.59091C9.89583 10.2424 9.74432 11.0379 9.74432 11.9773C9.74432 12.9242 9.89583 13.7235 10.1989 14.375C10.5057 15.0265 10.9242 15.5189 11.4545 15.8523C11.9848 16.1856 12.5814 16.3523 13.2443 16.3523C13.6117 16.3523 13.9602 16.303 14.2898 16.2045C14.6231 16.1023 14.9242 15.9527 15.1932 15.7557C15.4621 15.5587 15.6894 15.3182 15.875 15.0341C16.0644 14.7462 16.1951 14.4167 16.267 14.0455L18.0398 14.0511C17.9451 14.6231 17.7614 15.1496 17.4886 15.6307C17.2197 16.108 16.8731 16.5208 16.4489 16.8693C16.0284 17.214 15.5473 17.4811 15.0057 17.6705C14.464 17.8598 13.8731 17.9545 13.233 17.9545C12.2254 17.9545 11.3277 17.7159 10.5398 17.2386C9.75189 16.7576 9.13068 16.0701 8.67614 15.1761C8.22538 14.2822 8 13.2159 8 11.9773C8 10.7348 8.22727 9.66856 8.68182 8.77841C9.13636 7.88447 9.75758 7.19886 10.5455 6.72159C11.3333 6.24053 12.2292 6 13.233 6C13.8504 6 14.4261 6.08902 14.9602 6.26705C15.4981 6.44129 15.9811 6.69886 16.4091 7.03977C16.8371 7.37689 17.1913 7.78977 17.4716 8.27841C17.7519 8.76326 17.9413 9.31818 18.0398 9.94318Z" fill="white"/>
<path d="M26.1672 9.21591C26.1066 8.67803 25.8566 8.26136 25.4172 7.96591C24.9778 7.66667 24.4248 7.51705 23.7581 7.51705C23.2809 7.51705 22.868 7.5928 22.5195 7.74432C22.171 7.89205 21.9002 8.09659 21.707 8.35795C21.5176 8.61553 21.4229 8.90909 21.4229 9.23864C21.4229 9.51515 21.4873 9.75379 21.6161 9.95455C21.7487 10.1553 21.921 10.3239 22.1331 10.4602C22.349 10.5928 22.5801 10.7045 22.8263 10.7955C23.0725 10.8826 23.3093 10.9545 23.5365 11.0114L24.6729 11.3068C25.0441 11.3977 25.4248 11.5208 25.8149 11.6761C26.2051 11.8314 26.5668 12.036 26.9002 12.2898C27.2335 12.5436 27.5024 12.858 27.707 13.233C27.9153 13.608 28.0195 14.0568 28.0195 14.5795C28.0195 15.2386 27.849 15.8239 27.5081 16.3352C27.171 16.8466 26.6805 17.25 26.0365 17.5455C25.3964 17.8409 24.6218 17.9886 23.7127 17.9886C22.8415 17.9886 22.0877 17.8504 21.4513 17.5739C20.8149 17.2973 20.3168 16.9053 19.957 16.3977C19.5971 15.8864 19.3983 15.2803 19.3604 14.5795H21.1218C21.1559 15 21.2922 15.3504 21.5309 15.6307C21.7733 15.9072 22.082 16.1136 22.457 16.25C22.8358 16.3826 23.2506 16.4489 23.7013 16.4489C24.1975 16.4489 24.6388 16.3712 25.0252 16.2159C25.4153 16.0568 25.7221 15.8371 25.9456 15.5568C26.1691 15.2727 26.2809 14.9413 26.2809 14.5625C26.2809 14.2178 26.1824 13.9356 25.9854 13.7159C25.7922 13.4962 25.529 13.3144 25.1956 13.1705C24.8661 13.0265 24.493 12.8996 24.0763 12.7898L22.7013 12.4148C21.7695 12.161 21.0309 11.7879 20.4854 11.2955C19.9437 10.803 19.6729 10.1515 19.6729 9.34091C19.6729 8.67045 19.8547 8.08523 20.2184 7.58523C20.582 7.08523 21.0744 6.69697 21.6956 6.42045C22.3168 6.14015 23.0176 6 23.7979 6C24.5858 6 25.2809 6.13826 25.8831 6.41477C26.4892 6.69129 26.9665 7.07197 27.3149 7.55682C27.6634 8.03788 27.8452 8.59091 27.8604 9.21591H26.1672Z" fill="white"/>
<path d="M30.8145 6.15909L34.0532 15.6364H34.1839L37.4225 6.15909H39.3202L35.1327 17.7955H33.1043L28.9168 6.15909H30.8145Z" fill="white"/>
</svg>
