<svg width="80" height="55" viewBox="0 0 80 55" fill="none" xmlns="http://www.w3.org/2000/svg">
<g clip-path="url(#clip0_208_408)">
<path d="M80 18.956C79.8792 23.1759 77.1918 27.962 72.0094 31.359C71.7754 31.5137 71.5263 31.6496 71.2772 31.7817C70.7072 32.0761 70.6204 32.061 70.4279 31.4232C69.9033 29.6944 69.0578 28.128 68.05 26.6371C67.8575 26.3502 67.6386 26.0823 67.431 25.8067C66.9818 25.2103 66.9856 25.0707 67.6461 24.7423C68.5105 24.312 69.1937 23.6817 69.8315 22.9872C72.8775 19.6883 73.1833 13.5396 68.937 10.0218C66.242 7.78729 62.0788 7.08146 58.5459 9.13855C53.7221 11.9468 48.8794 14.7248 44.0443 17.5104C38.1788 20.8923 32.3057 24.2667 26.4402 27.6449C25.7872 28.0186 25.1342 28.3922 24.4926 28.7848C24.1415 28.9999 23.8433 29.0566 23.4508 28.8263C21.3409 27.5921 19.2083 26.3955 17.0946 25.1651C16.3548 24.7348 16.3774 24.7159 17.0682 24.1573C18.5402 22.9645 20.2312 22.1266 21.858 21.1792C26.5949 18.4163 31.3395 15.6647 36.0915 12.9244C40.5718 10.3388 45.0672 7.77219 49.5551 5.19799C51.514 4.07696 53.4428 2.89932 55.4319 1.83869C58.3043 0.310017 61.3805 -0.22596 64.6266 0.0722245C67.7027 0.355311 70.4921 1.38197 72.9908 3.17863C77.5088 6.43224 80.0453 11.4259 80 18.9447V18.956Z" fill="#003171"/>
<path d="M16.6337 0C20.0383 0.0377449 22.8616 0.81529 25.466 2.30244C29.331 4.51052 33.1659 6.77144 37.0159 9.00971C37.0423 9.02481 37.0725 9.03991 37.0989 9.05501C37.9029 9.53814 37.9067 9.60608 37.1216 10.059C36.3629 10.4969 35.6042 10.946 34.8418 11.3801C33.5094 12.1425 32.1581 12.8786 30.8446 13.675C30.3124 13.9958 29.8859 13.9694 29.3688 13.6637C26.7757 12.1388 24.1525 10.6554 21.5632 9.12295C18.5323 7.33006 14.4898 7.54144 11.6137 9.60608C6.24636 13.4598 6.74836 21.5712 12.5573 24.9003C15.9241 26.8291 19.2985 28.7541 22.6351 30.7395C26.5719 33.0796 30.5766 35.299 34.5474 37.5751C35.4985 38.1224 36.4422 38.6848 37.3858 39.2434C37.7519 39.4585 37.801 39.6624 37.3858 39.9077C35.3929 41.0853 33.4452 42.3422 31.4108 43.4557C30.5502 43.9275 29.8142 43.9502 28.9574 43.4444C25.8246 41.5949 22.6653 39.7945 19.5136 37.9752C16.7205 36.3635 13.9199 34.7631 11.1305 33.1363C9.3452 32.0945 7.54478 31.0943 5.91043 29.7996C3.98545 28.2747 2.66438 26.3233 1.61885 24.1718C0.199649 21.2466 -0.257063 18.1213 0.131708 14.913C0.675233 10.4553 2.7059 6.75257 6.16332 3.88018C9.30368 1.27578 12.9687 0.0830388 16.6337 0Z" fill="#328AFF"/>
<path d="M69.3863 37.4888C69.3447 45.6757 63.5471 52.4886 55.8057 54.0513C51.3631 54.9496 47.2678 54.0135 43.4065 51.8319C42.3006 51.2091 41.9609 51.0128 43.365 50.224C45.4146 49.0727 47.4415 47.8875 49.4721 46.7024C49.9817 46.4042 50.4799 46.3325 51.0801 46.4155C54.2582 46.8496 57.0098 45.872 59.1763 43.5544C61.6939 40.8594 62.1657 36.9793 60.6974 33.6351C59.9614 31.9592 58.7989 30.691 57.2475 29.7775C54.3563 28.079 51.4462 26.4145 48.5474 24.731C46.596 23.5987 44.6483 22.4626 42.7045 21.3189C42.1232 20.9754 42.1232 20.9377 42.6554 20.6282C44.8786 19.3411 47.1131 18.0691 49.34 16.7782C49.725 16.5555 50.0647 16.5102 50.4761 16.7518C54.16 18.8994 57.893 20.9641 61.5278 23.191C65.6495 25.72 68.0539 29.5095 69.0767 34.1975C69.3221 35.3336 69.4391 36.4886 69.39 37.485L69.3863 37.4888Z" fill="#328AFF"/>
<path d="M27.2177 54.4168C25.606 54.3979 23.6697 54.0054 21.7485 53.3373C18.3816 52.1672 15.7621 50.0384 13.7201 47.2264C11.2894 43.886 10.3533 40.0586 10.6779 35.9369C10.7232 35.3707 10.8289 35.3141 11.3045 35.5859C13.6409 36.9258 15.9697 38.2771 18.3061 39.617C18.7477 39.8699 18.9591 40.27 19.129 40.7192C20.5406 44.4522 24.2585 46.6376 27.9839 46.4904C29.354 46.4375 30.66 46.0978 31.8414 45.4222C35.3554 43.4217 38.8431 41.3759 42.3458 39.3566C46.3656 37.0391 50.3892 34.7328 54.409 32.4191C54.7902 32.2002 55.1828 31.9963 55.5338 31.7397C55.9641 31.4226 56.3302 31.483 56.719 31.8038C58.7194 33.4684 59.6329 35.5896 59.4479 38.1903C59.4177 38.5979 59.1611 38.7866 58.8515 38.964C56.5718 40.2813 54.2958 41.6024 52.016 42.9197C49.8721 44.1577 47.7621 45.4599 45.5994 46.6602C41.9004 48.7098 38.3373 51.0084 34.5402 52.8806C32.3736 53.9488 30.0448 54.4206 27.2139 54.4206L27.2177 54.4168Z" fill="#003171"/>
</g>
<defs>
<clipPath id="clip0_208_408">
<rect width="80" height="54.4169" fill="white"/>
</clipPath>
</defs>
</svg>
