<svg width="48" height="34" viewBox="0 0 48 34" fill="none" xmlns="http://www.w3.org/2000/svg">
<g clip-path="url(#clip0_211_247)">
<path d="M47.9988 12.2381C47.9263 14.7681 46.3139 17.6375 43.2045 19.6742C43.0641 19.7669 42.9146 19.8484 42.7651 19.9276C42.4232 20.1041 42.3711 20.0951 42.2556 19.7126C41.9408 18.6762 41.4335 17.7371 40.8288 16.8432C40.7133 16.6712 40.582 16.5106 40.4574 16.3454C40.1879 15.9878 40.1902 15.9041 40.5865 15.7072C41.1051 15.4492 41.515 15.0713 41.8978 14.6549C43.7254 12.6771 43.9088 8.99076 41.361 6.88169C39.744 5.54202 37.2461 5.11884 35.1263 6.35215C32.2321 8.03579 29.3265 9.70133 26.4254 11.3714C22.9061 13.399 19.3823 15.4221 15.8629 17.4474C15.4711 17.6714 15.0794 17.8955 14.6944 18.1308C14.4837 18.2598 14.3048 18.2938 14.0693 18.1557C12.8033 17.4157 11.5238 16.6984 10.2556 15.9607C9.8117 15.7027 9.82529 15.6914 10.2397 15.3564C11.123 14.6414 12.1375 14.139 13.1136 13.571C15.9558 11.9145 18.8025 10.2648 21.6537 8.6219C24.3419 7.07177 27.0392 5.53297 29.7319 3.98963C30.9072 3.31753 32.0645 2.61149 33.258 1.9756C34.9814 1.05911 36.8271 0.737767 38.7748 0.91654C40.6205 1.08626 42.2941 1.70179 43.7933 2.77895C46.5041 4.72962 48.026 7.7235 47.9988 12.2313V12.2381Z" fill="#0043EF"/>
<path d="M9.97984 0.875C12.0226 0.89763 13.7166 1.3638 15.2792 2.2554C17.5982 3.57923 19.8992 4.93474 22.2091 6.27667C22.225 6.28572 22.2431 6.29477 22.259 6.30382C22.7413 6.59348 22.7436 6.63422 22.2725 6.90577C21.8173 7.16827 21.3621 7.43756 20.9047 7.6978C20.1052 8.15492 19.2945 8.5962 18.5064 9.07368C18.1871 9.26603 17.9311 9.25019 17.6209 9.06689C16.065 8.15266 14.4911 7.26332 12.9375 6.34456C11.119 5.26966 8.6935 5.39638 6.96781 6.63422C3.74742 8.94469 4.04863 13.8078 7.53398 15.8037C9.55408 16.9601 11.5787 18.1142 13.5807 19.3045C15.9428 20.7075 18.3456 22.0381 20.728 23.4027C21.2987 23.7308 21.8649 24.068 22.4311 24.4029C22.6507 24.5319 22.6802 24.6541 22.4311 24.8012C21.2353 25.5072 20.0667 26.2608 18.8461 26.9284C18.3297 27.2112 17.8881 27.2248 17.374 26.9216C15.4943 25.8127 13.5988 24.7333 11.7078 23.6426C10.0319 22.6763 8.35153 21.7168 6.67793 20.7415C5.60673 20.1169 4.52648 19.5172 3.54587 18.741C2.39088 17.8268 1.59824 16.6568 0.97092 15.367C0.119399 13.6132 -0.154628 11.7394 0.0786343 9.81593C0.404749 7.14338 1.62315 4.92342 3.6976 3.20132C5.58182 1.63988 7.78083 0.924785 9.97984 0.875Z" fill="#328AFF"/>
<path d="M41.6319 23.351C41.6069 28.2594 38.1284 32.344 33.4835 33.2809C30.818 33.8195 28.3608 33.2582 26.044 31.9503C25.3805 31.5769 25.1767 31.4592 26.0191 30.9862C27.2488 30.296 28.465 29.5855 29.6834 28.8749C29.9891 28.6961 30.288 28.6531 30.6481 28.7029C32.555 28.9632 34.2059 28.3771 35.5059 26.9876C37.0164 25.3718 37.2995 23.0455 36.4185 21.0406C35.9769 20.0358 35.2794 19.2755 34.3486 18.7278C32.6139 17.7095 30.8678 16.7115 29.1285 15.7022C27.9577 15.0234 26.7891 14.3422 25.6228 13.6565C25.274 13.4506 25.274 13.428 25.5934 13.2424C26.9273 12.4708 28.2679 11.7081 29.6041 10.9342C29.8351 10.8007 30.0389 10.7735 30.2858 10.9184C32.4961 12.206 34.7359 13.4438 36.9168 14.779C39.3898 16.2951 40.8324 18.5671 41.4461 21.3777C41.5933 22.0589 41.6636 22.7513 41.6341 23.3488L41.6319 23.351Z" fill="#328AFF"/>
<path d="M16.3303 33.4958C15.3633 33.4845 14.2015 33.2491 13.0488 32.8486C11.0287 32.1471 9.45699 30.8707 8.23179 29.1848C6.77334 27.1821 6.21169 24.8875 6.40646 22.4164C6.43363 22.0769 6.49705 22.043 6.7824 22.2059C8.18424 23.0092 9.58155 23.8194 10.9834 24.6227C11.2484 24.7744 11.3752 25.0142 11.4771 25.2835C12.3241 27.5216 14.5548 28.8318 16.79 28.7436C17.6121 28.7119 18.3957 28.5082 19.1045 28.1032C21.213 26.9038 23.3055 25.6773 25.4072 24.4666C27.8191 23.0771 30.2332 21.6945 32.6451 20.3073C32.8738 20.176 33.1094 20.0538 33.32 19.9C33.5782 19.7099 33.7978 19.7461 34.0311 19.9384C35.2314 20.9364 35.7794 22.2082 35.6685 23.7673C35.6503 24.0117 35.4963 24.1249 35.3106 24.2312C33.9428 25.021 32.5772 25.813 31.2093 26.6028C29.923 27.3451 28.657 28.1258 27.3593 28.8454C25.1399 30.0742 23.0021 31.4523 20.7238 32.5748C19.4239 33.2152 18.0266 33.498 16.328 33.498L16.3303 33.4958Z" fill="#0043EF"/>
</g>
<defs>
<clipPath id="clip0_211_247">
<rect width="48" height="32.625" fill="white" transform="translate(0 0.875)"/>
</clipPath>
</defs>
</svg>
