<svg width="71" height="78" viewBox="0 0 71 78" fill="none" xmlns="http://www.w3.org/2000/svg">
<path d="M31.6184 7.36918C31.9811 7.42799 32.334 7.477 32.6967 7.477C43.7336 7.477 54.7705 7.477 65.7977 7.477C66.8857 7.477 67.8659 7.77105 68.7677 8.33957C69.2479 8.63362 69.4832 9.12372 69.7871 9.5648C70.1693 10.1137 70.2477 10.7606 70.3556 11.3978C70.4046 11.7114 70.4144 12.0153 70.4144 12.3289C70.4144 32.4914 70.4144 52.6442 70.4144 72.8067C70.4144 73.4634 70.3164 74.1103 70.0713 74.7278C69.7674 75.4924 69.2872 76.0903 68.6206 76.5804C67.9247 77.0901 67.1405 77.3155 66.3074 77.3155C54.8588 77.3155 43.4101 77.3155 31.9615 77.3155C31.8439 77.3155 31.7165 77.3548 31.6086 77.2763C31.6086 77.1979 31.6086 77.1195 31.6086 77.0313C31.6086 72.2774 31.6086 67.5332 31.6086 62.7793C31.6086 44.3027 31.6086 25.836 31.6086 7.35938L31.6184 7.36918Z" fill="#34C0F1"/>
<rect x="38.5542" y="21.0938" width="24.4688" height="2.53125" rx="0.84375" fill="white"/>
<rect x="38.5542" y="34.5938" width="24.4688" height="2.53125" rx="0.84375" fill="white"/>
<rect x="38.5542" y="48.0938" width="24.4688" height="2.53125" rx="0.84375" fill="white"/>
<rect x="38.5542" y="61.5938" width="24.4688" height="2.53125" rx="0.84375" fill="white"/>
<path d="M31.6179 7.36893C31.6179 25.8455 31.6179 44.3123 31.6179 62.7889C31.6179 67.5428 31.6179 72.2869 31.6179 77.0409C31.6179 77.1193 31.6179 77.1977 31.6179 77.2859C31.2258 77.2271 30.8631 77.0703 30.5102 76.9036C28.9812 76.1881 27.4913 75.4039 25.9916 74.659C23.2666 73.2965 20.5417 71.9341 17.8168 70.5814C17.2777 70.3168 16.7386 70.0423 16.1211 69.9639C16.1211 69.7678 16.1211 69.5816 16.1211 69.3856C16.1211 46.5079 16.1211 23.6303 16.1211 0.74284C16.1211 0.517396 16.023 0.291952 16.1015 0.0567065C16.2877 -0.0511145 16.4739 0.0174988 16.6504 0.0763103C17.1993 0.262546 17.709 0.517396 18.2187 0.782048C20.3849 1.88966 22.5315 3.01688 24.7075 4.11469C25.6289 4.57538 26.5601 5.01647 27.4913 5.45755C28.393 5.87904 29.3144 6.26131 30.2064 6.722C30.6671 6.95725 31.167 7.15328 31.6375 7.36893H31.6179Z" fill="#179BE1"/>
<path d="M16.0823 0.0664062C16.0038 0.29185 16.1019 0.517294 16.1019 0.752539C16.1019 23.6302 16.1019 46.5078 16.1019 69.3953C16.1019 69.5913 16.1019 69.7775 16.1019 69.9736C15.0727 70.052 14.2199 70.5813 13.3181 71.0028C13.0829 71.1106 12.8476 71.2478 12.6124 71.336C11.642 71.7085 10.7402 72.2378 9.80904 72.6887C8.37796 73.3846 6.92728 74.061 5.52561 74.8059C4.80027 75.1882 4.06512 75.5705 3.29077 75.8547C2.49682 76.139 1.78128 76.0116 1.16376 75.4332C0.928515 75.2176 0.810893 74.9333 0.74228 74.6393C0.654062 74.2766 0.585449 73.9139 0.585449 73.5317C0.585449 52.4478 0.585449 31.3639 0.59525 10.2702C0.59525 9.08416 1.01673 8.00595 1.8989 7.18259C2.389 6.7219 2.98692 6.37883 3.59463 6.09458C4.69245 5.57508 5.78046 5.02617 6.87827 4.48706C7.87806 3.99697 8.85826 3.45786 9.87765 3.00698C10.4364 2.76193 10.9461 2.39926 11.5146 2.16401C12.2693 1.85035 12.9653 1.41907 13.7004 1.0662C14.4747 0.693729 15.2393 0.282048 16.0921 0.0762084L16.0823 0.0664062Z" fill="#4FE5FE"/>
</svg>
